<svg width="24" height="24" viewBox="0 0 24 24" fill="none" xmlns="http://www.w3.org/2000/svg">
<g id="chat">
<path id="Vector" d="M9 10.5H15" stroke="#fff" stroke-width="1.5" stroke-linecap="round" stroke-linejoin="round"/>
<path id="Vector_2" d="M9 13.5H15" stroke="#fff" stroke-width="1.5" stroke-linecap="round" stroke-linejoin="round"/>
<path id="Vector_3" d="M7.49258 19.7924C9.38308 20.8866 11.607 21.2558 13.7496 20.8314C15.8923 20.407 17.8075 19.2178 19.1381 17.4856C20.4687 15.7533 21.124 13.5963 20.9817 11.4167C20.8394 9.23703 19.9093 7.18351 18.3648 5.63898C16.8202 4.09445 14.7667 3.16434 12.5871 3.02206C10.4074 2.87977 8.2504 3.53503 6.51819 4.86565C4.78597 6.19628 3.59679 8.11146 3.17235 10.2541C2.74792 12.3968 3.11719 14.6207 4.21133 16.5112L3.03852 20.0127C2.99445 20.1449 2.98806 20.2867 3.02005 20.4223C3.05205 20.5578 3.12117 20.6818 3.21967 20.7803C3.31817 20.8788 3.44216 20.948 3.57774 20.9799C3.71331 21.0119 3.85512 21.0055 3.98727 20.9615L7.49258 19.7924Z" stroke="#C7C8CA" stroke-width="1.5" stroke-linecap="round" stroke-linejoin="round"/>
</g>
</svg>
